HIERARCHY
ROOT Junyuan_V1:Solving:Hips
{
	OFFSET 0.000000 0.000000 0.000000
	CHANNELS 6 Xposition Yposition Zposition Xrotation Yrotation Zrotation
	JOINT Junyuan_V1:Solving:Spine
	{
		OFFSET 0.000000 -11.384845 2.506330
		CHANNELS 6 Xposition Yposition Zposition Xrotation Yrotation Zrotation
		JOINT Junyuan_V1:Solving:Spine1
		{
			OFFSET 0.000000 -9.451137 1.666492
			CHANNELS 6 Xposition Yposition Zposition Xrotation Yrotation Zrotation
			JOINT Junyuan_V1:Solving:Spine2
			{
				OFFSET 0.000000 -9.560415 0.836431
				CHANNELS 6 Xposition Yposition Zposition Xrotation Yrotation Zrotation
				JOINT Junyuan_V1:Solving:Spine3
				{
					OFFSET 0.000000 -9.596935 0.000000
					CHANNELS 6 Xposition Yposition Zposition Xrotation Yrotation Zrotation
					JOINT Junyuan_V1:Solving:Neck
					{
						OFFSET 0.000000 -12.338917 -1.233889
						CHANNELS 6 Xposition Yposition Zposition Xrotation Yrotation Zrotation
						JOINT Junyuan_V1:Solving:Neck1
						{
							OFFSET 0.000000 -7.011459 -0.613421
							CHANNELS 6 Xposition Yposition Zposition Xrotation Yrotation Zrotation
							JOINT Junyuan_V1:Solving:Head
							{
								OFFSET 0.000000 -6.931316 -1.222178
								CHANNELS 6 Xposition Yposition Zposition Xrotation Yrotation Zrotation
								JOINT Junyuan_V1:Solving:HeadEnd
								{
									OFFSET 0.000000 -9.728081 0.000002
									CHANNELS 6 Xposition Yposition Zposition Xrotation Yrotation Zrotation
									End Site
									{
										OFFSET 0.000000 -9.728081 0.000002
									}
								}
							}
						}
					}
					JOINT Junyuan_V1:Solving:RightShoulder
					{
						OFFSET 0.000000 -8.813511 -5.370063
						CHANNELS 6 Xposition Yposition Zposition Xrotation Yrotation Zrotation
						JOINT Junyuan_V1:Solving:RightArm
						{
							OFFSET -18.258251 -0.000008 0.000000
							CHANNELS 6 Xposition Yposition Zposition Xrotation Yrotation Zrotation
							JOINT Junyuan_V1:Solving:RightForeArm
							{
								OFFSET -29.201408 -0.000008 0.000000
								CHANNELS 6 Xposition Yposition Zposition Xrotation Yrotation Zrotation
								JOINT Junyuan_V1:Solving:RightHand
								{
									OFFSET -21.396938 -0.000008 0.000000
									CHANNELS 6 Xposition Yposition Zposition Xrotation Yrotation Zrotation
									JOINT Junyuan_V1:Solving:RightHandThumb1
									{
										OFFSET -3.324738 2.789463 -2.472237
										CHANNELS 6 Xposition Yposition Zposition Xrotation Yrotation Zrotation
										End Site
										{
											OFFSET -4.877937 0.000000 -4.923042
										}
									}
									JOINT Junyuan_V1:Solving:RightHandMiddle1
									{
										OFFSET -8.865959 -0.000004 0.056833
										CHANNELS 6 Xposition Yposition Zposition Xrotation Yrotation Zrotation
										End Site
										{
											OFFSET -6.930412 -0.000004 0.000000
										}
									}
								}
							}
						}
					}
					JOINT Junyuan_V1:Solving:LeftShoulder
					{
						OFFSET 0.000000 -8.813511 -5.370063
						CHANNELS 6 Xposition Yposition Zposition Xrotation Yrotation Zrotation
						JOINT Junyuan_V1:Solving:LeftArm
						{
							OFFSET 18.258251 -0.000008 0.000000
							CHANNELS 6 Xposition Yposition Zposition Xrotation Yrotation Zrotation
							JOINT Junyuan_V1:Solving:LeftForeArm
							{
								OFFSET 29.201408 -0.000008 0.000000
								CHANNELS 6 Xposition Yposition Zposition Xrotation Yrotation Zrotation
								JOINT Junyuan_V1:Solving:LeftHand
								{
									OFFSET 21.396938 -0.000008 0.000000
									CHANNELS 6 Xposition Yposition Zposition Xrotation Yrotation Zrotation
									JOINT Junyuan_V1:Solving:LeftHandThumb1
									{
										OFFSET 3.324738 2.789463 -2.472237
										CHANNELS 6 Xposition Yposition Zposition Xrotation Yrotation Zrotation
										End Site
										{
											OFFSET 4.877937 0.000000 -4.923042
										}
									}
									JOINT Junyuan_V1:Solving:LeftHandMiddle1
									{
										OFFSET 8.865959 -0.000004 0.056833
										CHANNELS 6 Xposition Yposition Zposition Xrotation Yrotation Zrotation
										End Site
										{
											OFFSET 6.930412 -0.000004 0.000000
										}
									}
								}
							}
						}
					}
				}
			}
		}
	}
	JOINT Junyuan_V1:Solving:RightUpLeg
	{
		OFFSET -10.758358 0.000000 0.000000
		CHANNELS 6 Xposition Yposition Zposition Xrotation Yrotation Zrotation
		JOINT Junyuan_V1:Solving:RightLeg
		{
			OFFSET 0.000000 42.048927 -0.000006
			CHANNELS 6 Xposition Yposition Zposition Xrotation Yrotation Zrotation
			JOINT Junyuan_V1:Solving:RightFoot
			{
				OFFSET 0.000000 37.321884 -0.000006
				CHANNELS 6 Xposition Yposition Zposition Xrotation Yrotation Zrotation
				JOINT Junyuan_V1:Solving:RightForeFoot
				{
					OFFSET 0.000000 3.476204 -0.000000
					CHANNELS 6 Xposition Yposition Zposition Xrotation Yrotation Zrotation
					JOINT Junyuan_V1:Solving:RightToeBase
					{
						OFFSET 0.000000 0.000000 -13.613925
						CHANNELS 6 Xposition Yposition Zposition Xrotation Yrotation Zrotation
						JOINT Junyuan_V1:Solving:RightToeBaseEnd
						{
							OFFSET 0.000000 0.000000 -4.229021
							CHANNELS 6 Xposition Yposition Zposition Xrotation Yrotation Zrotation
							End Site
							{
								OFFSET 0.000000 -4.229019 0.000000
							}
						}
					}
				}
			}
		}
	}
	JOINT Junyuan_V1:Solving:LeftUpLeg
	{
		OFFSET 10.758358 0.000000 0.000000
		CHANNELS 6 Xposition Yposition Zposition Xrotation Yrotation Zrotation
		JOINT Junyuan_V1:Solving:LeftLeg
		{
			OFFSET 0.000000 42.048927 -0.000006
			CHANNELS 6 Xposition Yposition Zposition Xrotation Yrotation Zrotation
			JOINT Junyuan_V1:Solving:LeftFoot
			{
				OFFSET 0.000000 37.321884 -0.000006
				CHANNELS 6 Xposition Yposition Zposition Xrotation Yrotation Zrotation
				JOINT Junyuan_V1:Solving:LeftForeFoot
				{
					OFFSET 0.000000 3.476204 -0.000000
					CHANNELS 6 Xposition Yposition Zposition Xrotation Yrotation Zrotation
					JOINT Junyuan_V1:Solving:LeftToeBase
					{
						OFFSET 0.000000 0.000000 -13.613925
						CHANNELS 6 Xposition Yposition Zposition Xrotation Yrotation Zrotation
						JOINT Junyuan_V1:Solving:LeftToeBaseEnd
						{
							OFFSET 0.000000 0.000000 -4.216879
							CHANNELS 6 Xposition Yposition Zposition Xrotation Yrotation Zrotation
							End Site
							{
								OFFSET 0.000000 -4.216881 0.000000
							}
						}
					}
				}
			}
		}
	}
}
MOTION
Frames: 4
Frame Time: 0.041667
-4.309100 -18.768480 -88.881386 -88.270722 1.988064 -177.697876 -0.000001 -11.384828 2.506323 9.093334 -0.136624 -1.433688 -0.000000 -9.451144 1.666498 -1.783985 0.051841 -0.108960 0.000000 -9.560407 0.836430 -3.310571 -0.220728 -0.214932 -0.000001 -9.596936 0.000006 -3.290366 -0.711615 0.446472 -0.000001 -12.338918 -1.233882 -10.155819 0.510922 2.191861 0.000000 -7.011517 -0.613419 3.101204 1.294638 -0.081052 -0.000001 -6.931312 -1.222173 13.859829 0.160851 -0.116871 0.000001 -9.728073 -0.000002 0.000000 0.000000 -0.000000 -0.000001 -8.813538 -5.370059 0.000004 20.043924 6.379425 -18.258249 -0.000050 0.000009 -0.226460 -16.207262 -73.411044 -29.201389 0.000004 0.000004 17.360242 -7.561679 2.355800 -21.396965 -0.000006 -0.000003 0.341077 -1.325735 14.427824 -3.324737 2.789448 -2.472234 -0.000005 0.000005 0.000001 -8.865955 0.000016 0.056836 0.000000 0.000003 0.000004 -0.000001 -8.813541 -5.370058 -179.999978 29.536713 6.586821 18.258249 -0.000006 -0.000009 9.494911 119.333240 -123.581304 29.201384 0.000001 -0.000003 -12.875684 12.628353 2.860943 21.396952 0.000004 0.000003 -0.090317 -2.237956 -2.311646 3.324736 2.789451 -2.472231 -0.000001 -0.000005 0.000008 8.865977 -0.000000 0.056835 0.000004 -0.000002 0.000004 -10.758359 0.000016 -0.000008 6.602047 5.396661 -4.926013 0.000001 42.048931 -0.000008 -2.321359 -0.000000 0.000000 0.000000 37.321896 -0.000005 12.422158 13.273158 7.532865 0.000000 3.476212 0.000001 -0.000002 -0.000002 0.000002 0.000002 -0.000004 -13.613925 2.860877 0.000004 -0.000002 -0.000001 0.000000 -4.229023 0.000001 -0.000005 -0.000000 10.758359 0.000003 -0.000005 6.231777 -8.187161 -0.802778 0.000000 42.048912 -0.000007 -1.762742 0.000002 -0.000000 -0.000002 37.321896 -0.000003 5.003368 -13.952874 -4.521315 -0.000000 3.476212 -0.000003 0.000000 0.000002 0.000000 -0.000000 -0.000009 -13.613931 10.465545 0.000003 -0.000001 0.000001 0.000001 -4.216877 0.000002 -0.000001 -0.000000 
-4.312630 -18.778355 -88.880386 -88.259274 1.997118 -177.698259 0.000001 -11.384832 2.506340 9.079537 -0.142550 -1.440780 -0.000000 -9.451138 1.666494 -1.786413 0.052927 -0.111996 0.000000 -9.560405 0.836430 -3.298898 -0.217739 -0.218388 0.000000 -9.596930 0.000007 -3.281694 -0.705049 0.438016 -0.000001 -12.338921 -1.233895 -10.161267 0.491632 2.203309 0.000000 -7.011485 -0.613424 3.097504 1.288413 -0.089828 0.000000 -6.931339 -1.222175 13.871811 0.161258 -0.120232 0.000001 -9.728058 0.000001 0.000000 0.000000 0.000000 0.000000 -8.813511 -5.370069 0.000004 19.995949 6.253880 -18.258242 -0.000045 0.000002 0.358297 -17.398215 -74.027141 -29.201399 -0.000010 0.000006 17.374418 -8.223491 2.562586 -21.396919 -0.000008 -0.000003 0.367489 -1.549053 13.346430 -3.324764 2.789459 -2.472241 -0.000003 -0.000000 -0.000004 -8.865981 0.000004 0.056830 -0.000002 0.000001 0.000001 -0.000000 -8.813530 -5.370068 -179.999978 29.547388 6.464479 18.258249 -0.000005 -0.000002 9.856611 118.542782 -123.244425 29.201414 0.000009 -0.000003 -13.176903 13.194515 3.059005 21.396948 -0.000004 -0.000002 -0.070879 -2.141463 -1.896334 3.324749 2.789430 -2.472235 -0.000005 -0.000014 0.000004 8.865958 -0.000018 0.056830 -0.000002 -0.000000 -0.000001 -10.758356 0.000021 0.000009 6.625984 5.294130 -4.924094 -0.000000 42.048943 -0.000007 -2.351180 -0.000000 0.000000 0.000001 37.321892 -0.000005 12.433666 13.384790 7.510421 -0.000001 3.476212 -0.000000 0.000001 -0.000001 -0.000000 0.000000 -0.000001 -13.613925 2.841279 -0.000003 0.000001 0.000001 0.000001 -4.229023 0.000002 -0.000000 0.000000 10.758360 0.000018 0.000007 6.238499 -8.206300 -0.803786 -0.000001 42.048931 -0.000003 -1.739741 -0.000001 0.000000 0.000002 37.321892 -0.000006 4.981501 -13.921938 -4.511956 0.000001 3.476204 -0.000003 0.000001 -0.000001 -0.000000 0.000000 -0.000010 -13.613923 10.458682 -0.000003 0.000001 -0.000001 -0.000008 -4.216872 -0.000002 -0.000000 -0.000001 
-4.316346 -18.784996 -88.879105 -88.252116 2.006039 -177.704023 -0.000000 -11.384851 2.506323 9.070890 -0.146163 -1.447625 0.000000 -9.451160 1.666493 -1.797884 0.052835 -0.110943 -0.000000 -9.560408 0.836431 -3.288310 -0.218644 -0.215498 0.000000 -9.596931 0.000002 -3.267612 -0.697625 0.428151 0.000001 -12.338916 -1.233888 -10.170276 0.490805 2.214005 -0.000000 -7.011460 -0.613418 3.095009 1.264607 -0.100728 -0.000000 -6.931274 -1.222175 13.880971 0.158266 -0.123909 0.000000 -9.728104 0.000004 0.000000 0.000000 0.000000 -0.000001 -8.813488 -5.370061 0.000001 19.947684 6.132639 -18.258247 -0.000007 0.000008 0.870396 -18.558384 -74.640512 -29.201401 0.000007 0.000002 17.510358 -8.830711 2.772947 -21.396952 -0.000003 -0.000001 0.397913 -1.842006 12.191059 -3.324737 2.789459 -2.472238 -0.000000 0.000005 0.000001 -8.865950 0.000014 0.056833 -0.000001 -0.000004 0.000002 0.000000 -8.813492 -5.370060 -179.999964 29.555618 6.367182 18.258249 -0.000005 -0.000004 10.124204 117.778771 -122.829286 29.201410 -0.000002 -0.000004 -13.607184 13.760272 3.295229 21.396938 -0.000015 -0.000007 -0.049400 -1.972630 -1.434985 3.324736 2.789441 -2.472241 -0.000000 -0.000014 0.000007 8.865944 -0.000014 0.056829 -0.000001 -0.000002 -0.000000 -10.758359 -0.000006 -0.000008 6.637337 5.268980 -4.915933 -0.000002 42.048920 -0.000006 -2.353245 -0.000000 0.000000 0.000000 37.321903 -0.000004 12.424803 13.420081 7.488525 -0.000001 3.476204 0.000001 -0.000003 -0.000004 -0.000000 0.000000 -0.000015 -13.613924 2.847492 -0.000004 0.000001 -0.000001 0.000007 -4.229021 -0.000003 -0.000003 0.000000 10.758358 -0.000001 -0.000005 6.221856 -8.298478 -0.800239 -0.000001 42.048916 -0.000006 -1.681362 0.000002 -0.000000 0.000001 37.321892 -0.000008 4.940324 -13.823409 -4.495696 0.000000 3.476196 -0.000001 0.000001 0.000001 -0.000000 -0.000002 0.000010 -13.613921 10.458478 -0.000001 -0.000001 0.000004 0.000002 -4.216877 0.000006 -0.000004 -0.000001 
-4.314710 -18.785887 -88.877800 -88.249869 2.013995 -177.708709 -0.000001 -11.384846 2.506327 9.060234 -0.147334 -1.443207 0.000001 -9.451121 1.666488 -1.796400 0.053027 -0.113461 -0.000001 -9.560409 0.836432 -3.287272 -0.219253 -0.213470 0.000001 -9.596928 0.000007 -3.262173 -0.688245 0.403012 -0.000000 -12.338893 -1.233899 -10.173649 0.461480 2.215727 0.000003 -7.011456 -0.613419 3.093760 1.255831 -0.093175 -0.000001 -6.931283 -1.222172 13.887276 0.158319 -0.123459 0.000001 -9.728104 0.000002 0.000000 -0.000000 -0.000000 -0.000001 -8.813519 -5.370076 0.000002 19.898023 6.028700 -18.258247 -0.000007 0.000006 1.370117 -19.812422 -75.249075 -29.201401 -0.000009 0.000001 17.637866 -9.460101 2.991510 -21.396942 -0.000013 -0.000003 0.396555 -1.989598 11.273828 -3.324764 2.789466 -2.472244 -0.000003 0.000007 -0.000004 -8.865972 0.000014 0.056825 -0.000004 0.000003 0.000003 -0.000000 -8.813541 -5.370075 -179.999964 29.530685 6.249252 18.258249 -0.000005 -0.000001 10.132524 117.168412 -122.191524 29.201395 0.000003 -0.000007 -13.827685 14.240616 3.464928 21.396935 -0.000013 -0.000009 -0.027719 -1.873983 -0.847703 3.324756 2.789435 -2.472229 -0.000001 -0.000003 0.000004 8.865962 -0.000019 0.056838 0.000003 -0.000002 0.000003 -10.758356 -0.000015 -0.000003 6.635066 5.288680 -4.914637 -0.000000 42.048916 -0.000008 -2.336817 0.000000 -0.000001 -0.000002 37.321880 -0.000009 12.403944 13.419550 7.483373 0.000002 3.476196 0.000001 0.000001 -0.000002 0.000001 0.000001 0.000004 -13.613921 2.844195 0.000002 0.000001 -0.000000 0.000000 -4.229019 0.000001 0.000003 -0.000001 10.758359 -0.000004 -0.000007 6.261246 -8.114069 -0.793265 0.000002 42.048920 -0.000007 -1.753728 -0.000002 0.000000 0.000001 37.321884 -0.000002 4.981774 -14.003690 -4.499423 -0.000000 3.476204 -0.000000 0.000000 0.000000 0.000001 0.000003 0.000001 -13.613926 10.468429 -0.000006 -0.000001 -0.000002 -0.000001 -4.216882 -0.000001 0.000003 -0.000001 
